<svg width="24" height="25" viewBox="0 0 24 25" fill="none" xmlns="http://www.w3.org/2000/svg">
<path d="M9.70711 4.79289C9.31658 4.40237 8.68342 4.40237 8.29289 4.79289C7.90237 5.18342 7.90237 5.81658 8.29289 6.20711L9.70711 4.79289ZM16 12.5L16.7071 13.2071C17.0976 12.8166 17.0976 12.1834 16.7071 11.7929L16 12.5ZM8.29289 18.7929C7.90237 19.1834 7.90237 19.8166 8.29289 20.2071C8.68342 20.5976 9.31658 20.5976 9.70711 20.2071L8.29289 18.7929ZM8.29289 6.20711L15.2929 13.2071L16.7071 11.7929L9.70711 4.79289L8.29289 6.20711ZM15.2929 11.7929L8.29289 18.7929L9.70711 20.2071L16.7071 13.2071L15.2929 11.7929Z" fill="#333B47"/>
</svg>
