<svg width="24" height="24" viewBox="0 0 24 24" fill="none" xmlns="http://www.w3.org/2000/svg">
<path d="M8 11C7.44772 11 7 11.4477 7 12C7 12.5523 7.44772 13 8 13V11ZM16 13C16.5523 13 17 12.5523 17 12C17 11.4477 16.5523 11 16 11V13ZM8 13H16V11H8V13Z" fill="#6C757D"/>
<path d="M15 7C14.4477 7 14 7.44772 14 8C14 8.55228 14.4477 9 15 9V7ZM15 15C14.4477 15 14 15.4477 14 16C14 16.5523 14.4477 17 15 17V15ZM15 9H17V7H15V9ZM17 15H15V17H17V15ZM20 12C20 13.6569 18.6569 15 17 15V17C19.7614 17 22 14.7614 22 12H20ZM17 9C18.6569 9 20 10.3431 20 12H22C22 9.23858 19.7614 7 17 7V9Z" fill="#6C757D"/>
<path d="M9 9C9.55228 9 10 8.55228 10 8C10 7.44772 9.55228 7 9 7V9ZM9 17C9.55228 17 10 16.5523 10 16C10 15.4477 9.55228 15 9 15V17ZM9 7H7V9H9V7ZM7 17H9V15H7V17ZM2 12C2 14.7614 4.23858 17 7 17V15C5.34315 15 4 13.6569 4 12H2ZM7 7C4.23858 7 2 9.23858 2 12H4C4 10.3431 5.34315 9 7 9V7Z" fill="#6C757D"/>
</svg>
