<svg width="24" height="25" viewBox="0 0 24 25" fill="none" xmlns="http://www.w3.org/2000/svg">
<g id="basil:eye-solid">
<path id="Vector" d="M12 10.4121C11.4033 10.4121 10.831 10.6492 10.409 11.0711C9.98705 11.4931 9.75 12.0654 9.75 12.6621C9.75 13.2588 9.98705 13.8311 10.409 14.2531C10.831 14.6751 11.4033 14.9121 12 14.9121C12.5967 14.9121 13.169 14.6751 13.591 14.2531C14.0129 13.8311 14.25 13.2588 14.25 12.6621C14.25 12.0654 14.0129 11.4931 13.591 11.0711C13.169 10.6492 12.5967 10.4121 12 10.4121Z" fill="#9DA1A7"/>
<path id="Vector_2" fill-rule="evenodd" clip-rule="evenodd" d="M12 6.16211C9.382 6.16211 7.028 7.21311 5.332 8.51511C4.482 9.16711 3.785 9.89111 3.296 10.5951C2.816 11.2871 2.5 12.0131 2.5 12.6621C2.5 13.3111 2.817 14.0371 3.296 14.7281C3.786 15.4331 4.482 16.1571 5.332 16.8081C7.028 18.1121 9.382 19.1621 12 19.1621C14.618 19.1621 16.972 18.1111 18.668 16.8091C19.518 16.1571 20.215 15.4331 20.703 14.7291C21.183 14.0371 21.5 13.3111 21.5 12.6621C21.5 12.0131 21.183 11.2871 20.703 10.5961C20.215 9.89111 19.518 9.16711 18.668 8.51611C16.972 7.21211 14.618 6.16211 12 6.16211ZM8.25 12.6621C8.25 11.6675 8.64509 10.7137 9.34835 10.0105C10.0516 9.3072 11.0054 8.91211 12 8.91211C12.9946 8.91211 13.9484 9.3072 14.6517 10.0105C15.3549 10.7137 15.75 11.6675 15.75 12.6621C15.75 13.6567 15.3549 14.6105 14.6517 15.3138C13.9484 16.017 12.9946 16.4121 12 16.4121C11.0054 16.4121 10.0516 16.017 9.34835 15.3138C8.64509 14.6105 8.25 13.6567 8.25 12.6621Z" fill="#9DA1A7"/>
</g>
</svg>
