<svg width="25" height="25" viewBox="0 0 25 25" fill="none" xmlns="http://www.w3.org/2000/svg">
<g id="flat-color-icons:google">
<path id="Vector" d="M22.3055 10.2046H21.5V10.1631H12.5V14.1631H18.1515C17.327 16.4916 15.1115 18.1631 12.5 18.1631C9.1865 18.1631 6.5 15.4766 6.5 12.1631C6.5 8.84959 9.1865 6.16309 12.5 6.16309C14.0295 6.16309 15.421 6.74009 16.4805 7.68259L19.309 4.85409C17.523 3.18959 15.134 2.16309 12.5 2.16309C6.9775 2.16309 2.5 6.64059 2.5 12.1631C2.5 17.6856 6.9775 22.1631 12.5 22.1631C18.0225 22.1631 22.5 17.6856 22.5 12.1631C22.5 11.4926 22.431 10.8381 22.3055 10.2046Z" fill="#FFC107"/>
<path id="Vector_2" d="M3.65234 7.50859L6.93784 9.91809C7.82684 7.71709 9.97984 6.16309 12.4993 6.16309C14.0288 6.16309 15.4203 6.74009 16.4798 7.68259L19.3083 4.85409C17.5223 3.18959 15.1333 2.16309 12.4993 2.16309C8.65834 2.16309 5.32734 4.33159 3.65234 7.50859Z" fill="#FF3D00"/>
<path id="Vector_3" d="M12.5002 22.1634C15.0832 22.1634 17.4302 21.1749 19.2047 19.5674L16.1097 16.9484C15.0719 17.7376 13.8039 18.1645 12.5002 18.1634C9.89916 18.1634 7.69066 16.5049 6.85866 14.1904L3.59766 16.7029C5.25266 19.9414 8.61366 22.1634 12.5002 22.1634Z" fill="#4CAF50"/>
<path id="Vector_4" d="M22.3055 10.2046H21.5V10.1631H12.5V14.1631H18.1515C17.7571 15.2713 17.0467 16.2397 16.108 16.9486L16.1095 16.9476L19.2045 19.5666C18.9855 19.7656 22.5 17.1631 22.5 12.1631C22.5 11.4926 22.431 10.8381 22.3055 10.2046Z" fill="#1976D2"/>
</g>
</svg>
