<svg width="120" height="31" viewBox="0 0 120 31" fill="none" xmlns="http://www.w3.org/2000/svg">
<path d="M8.65225 10.1531H5.87321V22.6842H1.80494V10.1531H0V6.87049H1.80494V6.07124C1.80494 4.13021 2.35884 2.70297 3.46663 1.78955C4.57442 0.876117 6.24566 0.447948 8.48035 0.505037V3.8733C7.50625 3.85427 6.82821 4.01603 6.44621 4.35856C6.06421 4.7011 5.87321 5.31957 5.87321 6.21397V6.87049H8.65225V10.1531Z" fill="#2C974B"/>
<path d="M9.64716 14.7203C9.64716 13.1218 9.96231 11.7041 10.5926 10.4671C11.242 9.23018 12.111 8.2787 13.1997 7.61265C14.3075 6.94661 15.5395 6.61359 16.8956 6.61359C18.0798 6.61359 19.1111 6.85146 19.9897 7.32721C20.8874 7.80295 21.6037 8.40239 22.1385 9.12552V6.87049H26.1781V22.6842H22.1385V20.3721C21.6228 21.1143 20.9065 21.7327 19.9897 22.2275C19.092 22.7033 18.0511 22.9411 16.8669 22.9411C15.5299 22.9411 14.3075 22.5986 13.1997 21.9135C12.111 21.2284 11.242 20.2674 10.5926 19.0305C9.96231 17.7745 9.64716 16.3378 9.64716 14.7203ZM22.1385 14.7774C22.1385 13.8068 21.9475 12.979 21.5655 12.294C21.1835 11.5899 20.6678 11.057 20.0184 10.6955C19.369 10.3149 18.6719 10.1246 17.927 10.1246C17.1821 10.1246 16.4945 10.3054 15.8642 10.6669C15.2339 11.0285 14.7182 11.5613 14.3171 12.2654C13.9351 12.9505 13.7441 13.7688 13.7441 14.7203C13.7441 15.6718 13.9351 16.5091 14.3171 17.2322C14.7182 17.9363 15.2339 18.4786 15.8642 18.8592C16.5136 19.2398 17.2012 19.4301 17.927 19.4301C18.6719 19.4301 19.369 19.2494 20.0184 18.8878C20.6678 18.5072 21.1835 17.9744 21.5655 17.2893C21.9475 16.5852 22.1385 15.7479 22.1385 14.7774Z" fill="#2C974B"/>
<path d="M47.2523 14.7203C47.2523 13.1218 47.5674 11.7041 48.1977 10.4671C48.8471 9.23018 49.7162 8.2787 50.8049 7.61265C51.9127 6.94661 53.1446 6.61359 54.5007 6.61359C55.6849 6.61359 56.7163 6.85146 57.5949 7.32721C58.4926 7.80295 59.2088 8.40239 59.7436 9.12552V6.87049H63.7832V22.6842H59.7436V20.3721C59.2279 21.1143 58.5117 21.7327 57.5949 22.2275C56.6972 22.7033 55.6562 22.9411 54.472 22.9411C53.135 22.9411 51.9127 22.5986 50.8049 21.9135C49.7162 21.2284 48.8471 20.2674 48.1977 19.0305C47.5674 17.7745 47.2523 16.3378 47.2523 14.7203ZM59.7436 14.7774C59.7436 13.8068 59.5526 12.979 59.1706 12.294C58.7886 11.5899 58.2729 11.057 57.6235 10.6955C56.9741 10.3149 56.277 10.1246 55.5321 10.1246C54.7872 10.1246 54.0996 10.3054 53.4693 10.6669C52.839 11.0285 52.3233 11.5613 51.9222 12.2654C51.5402 12.9505 51.3492 13.7688 51.3492 14.7203C51.3492 15.6718 51.5402 16.5091 51.9222 17.2322C52.3233 17.9363 52.839 18.4786 53.4693 18.8592C54.1187 19.2398 54.8063 19.4301 55.5321 19.4301C56.277 19.4301 56.9741 19.2494 57.6235 18.8878C58.2729 18.5072 58.7886 17.9744 59.1706 17.2893C59.5526 16.5852 59.7436 15.7479 59.7436 14.7774Z" fill="#2C974B"/>
<path d="M66.0963 14.7203C66.0963 13.1218 66.4114 11.7041 67.0417 10.4671C67.6911 9.23018 68.5697 8.2787 69.6775 7.61265C70.7853 6.94661 72.0172 6.61359 73.3733 6.61359C74.4047 6.61359 75.3883 6.84195 76.3242 7.29866C77.2601 7.73635 78.005 8.32627 78.5589 9.06843V1.56119H82.6272V22.6842H78.5589V20.3436C78.0623 21.1238 77.3652 21.7518 76.4675 22.2275C75.5698 22.7033 74.5289 22.9411 73.3447 22.9411C72.0077 22.9411 70.7853 22.5986 69.6775 21.9135C68.5697 21.2284 67.6911 20.2674 67.0417 19.0305C66.4114 17.7745 66.0963 16.3378 66.0963 14.7203ZM78.5876 14.7774C78.5876 13.8068 78.3966 12.979 78.0146 12.294C77.6326 11.5899 77.1169 11.057 76.4675 10.6955C75.8181 10.3149 75.1209 10.1246 74.3761 10.1246C73.6312 10.1246 72.9436 10.3054 72.3133 10.6669C71.683 11.0285 71.1673 11.5613 70.7662 12.2654C70.3842 12.9505 70.1932 13.7688 70.1932 14.7203C70.1932 15.6718 70.3842 16.5091 70.7662 17.2322C71.1673 17.9363 71.683 18.4786 72.3133 18.8592C72.9627 19.2398 73.6503 19.4301 74.3761 19.4301C75.1209 19.4301 75.8181 19.2494 76.4675 18.8878C77.1169 18.5072 77.6326 17.9744 78.0146 17.2893C78.3966 16.5852 78.5876 15.7479 78.5876 14.7774Z" fill="#2C974B"/>
<path d="M84.9402 14.7203C84.9402 13.1218 85.2554 11.7041 85.8857 10.4671C86.5351 9.23018 87.4041 8.2787 88.4928 7.61265C89.6006 6.94661 90.8325 6.61359 92.1886 6.61359C93.3728 6.61359 94.4042 6.85146 95.2828 7.32721C96.1805 7.80295 96.8968 8.40239 97.4315 9.12552V6.87049H101.471V22.6842H97.4315V20.3721C96.9159 21.1143 96.1996 21.7327 95.2828 22.2275C94.3851 22.7033 93.3442 22.9411 92.16 22.9411C90.823 22.9411 89.6006 22.5986 88.4928 21.9135C87.4041 21.2284 86.5351 20.2674 85.8857 19.0305C85.2554 17.7745 84.9402 16.3378 84.9402 14.7203ZM97.4315 14.7774C97.4315 13.8068 97.2406 12.979 96.8586 12.294C96.4766 11.5899 95.9609 11.057 95.3115 10.6955C94.6621 10.3149 93.9649 10.1246 93.22 10.1246C92.4751 10.1246 91.7875 10.3054 91.1572 10.6669C90.5269 11.0285 90.0112 11.5613 89.6102 12.2654C89.2281 12.9505 89.0372 13.7688 89.0372 14.7203C89.0372 15.6718 89.2281 16.5091 89.6102 17.2322C90.0112 17.9363 90.5269 18.4786 91.1572 18.8592C91.8066 19.2398 92.4942 19.4301 93.22 19.4301C93.9649 19.4301 94.6621 19.2494 95.3115 18.8878C95.9609 18.5072 96.4766 17.9744 96.8586 17.2893C97.2406 16.5852 97.4315 15.7479 97.4315 14.7774Z" fill="#2C974B"/>
<path d="M120 6.87049L110.173 30.1629H105.904L109.342 22.2846L102.982 6.87049H107.48L111.577 17.9173L115.731 6.87049H120Z" fill="#2C974B"/>
<g clip-path="url(#clip0_4651_11611)">
<path fill-rule="evenodd" clip-rule="evenodd" d="M28.4766 9.22771V20.5001C28.4766 21.2128 28.7627 21.9254 29.2992 22.3768C29.6211 22.65 30.0145 22.8282 30.5033 22.8282H42.4252C42.8663 22.8282 43.2597 22.65 43.5101 22.46C44.1896 21.9611 44.44 21.3197 44.4519 20.4882C44.4519 20.4288 44.4638 20.405 44.4638 20.3457V20.2506C44.4519 18.0888 44.4638 15.9032 44.4638 13.7295C43.9035 13.9196 43.2836 14.1571 42.9378 14.3353C42.9021 14.3472 42.8663 14.3591 42.8305 14.3828V18.1482C42.8305 18.362 42.8186 18.5521 42.8186 18.754C42.8186 19.1578 42.8186 19.5736 42.8186 19.9893C42.8186 20.7851 42.8782 21.2009 42.2106 21.2365C42.1033 21.2365 42.0079 21.2246 41.9126 21.2365C41.6622 21.2721 32.685 21.2484 32.4346 21.2484C32.1843 21.2484 31.9697 21.2365 31.7312 21.2365C31.3974 21.2365 30.6464 21.2721 30.3841 21.1534C30.2172 21.0821 30.1218 20.9158 30.1218 20.6901C30.1218 20.6307 30.1099 20.607 30.1099 20.5357C30.1099 20.4763 30.1099 20.4169 30.1099 20.3575C30.1099 20.2269 30.0979 20.1318 30.0979 20.0131L30.086 16.3902C30.086 15.8795 30.0979 15.4043 30.0979 14.9055V12.6724C30.0979 12.4111 30.1099 12.1972 30.1099 11.9359V9.70284C30.1099 9.42964 30.086 8.907 30.2768 8.74071C30.4437 8.58629 30.6464 8.58629 30.8729 8.58629C30.9563 8.58629 30.9802 8.57441 31.0517 8.57441C34.0441 8.53878 37.1199 8.57441 40.1004 8.57441C40.47 8.57441 42.0914 8.55066 42.3775 8.61005C42.604 8.65756 42.7471 8.76446 42.7948 8.99015C42.8305 9.21583 42.7948 9.48903 42.8186 9.72659C42.8425 9.96415 42.8305 10.2492 42.8305 10.4987C42.8305 10.7719 42.8425 10.9976 42.8425 11.2589V11.9003C43.3432 11.6984 43.8678 11.5083 44.3804 11.3658L44.4638 11.3301V9.6672C44.4638 9.06142 44.3923 8.42 44.0704 7.93299C44.0347 7.86172 43.987 7.81421 43.9393 7.74294C43.5816 7.29157 42.8663 6.95898 42.2702 6.95898H30.694C30.396 6.95898 30.0503 7.05401 29.7761 7.16091C28.9534 7.50538 28.4766 8.32497 28.4766 9.22771Z" fill="#2C974B"/>
<path fill-rule="evenodd" clip-rule="evenodd" d="M37.1202 15.664C37.0367 15.6046 36.8102 15.367 36.7268 15.272C36.5241 15.082 36.3214 14.8919 36.0949 14.7375L35.9757 14.6543C35.9399 14.6306 35.8922 14.6068 35.8565 14.5831C35.8207 14.5474 35.773 14.5237 35.7373 14.4999C35.2246 14.2505 34.7239 14.0723 34.1397 13.9179C33.6271 13.7991 33.0429 13.6566 32.4945 13.716C32.4349 13.7278 32.3753 13.7397 32.3157 13.7516C32.3157 13.9535 32.3038 14.1079 32.3038 14.3099C32.3038 14.488 32.2799 14.69 32.2799 14.8681C32.2799 15.2482 32.2441 15.6165 32.2441 15.9966C32.2918 15.9966 32.2918 15.9847 32.3514 15.9847C33.0787 15.9847 33.3886 15.9966 34.0443 16.246C34.4497 16.3885 34.8193 16.6261 35.1412 16.8993C35.165 16.9231 35.1769 16.9349 35.2008 16.9587C35.32 17.0418 35.4392 17.1725 35.5346 17.2794L35.6419 17.4101C35.928 17.7545 36.1426 18.0634 36.3572 18.4553C36.5718 18.8592 36.7387 19.2749 36.8818 19.7025C36.8937 19.7619 36.9175 19.8451 36.9414 19.8926C37.0129 19.857 37.1202 19.8332 37.2037 19.8095L38.0143 19.5481C38.1097 19.5125 38.1932 19.4887 38.2766 19.465L38.825 19.2868C38.9085 19.2631 39.0277 19.2393 39.0992 19.2037C39.0992 19.168 39.0873 19.1205 39.0873 19.073C39.0635 18.8711 39.0277 18.6454 39.0277 18.4316C39.0277 18.3722 39.0158 18.3603 39.0158 18.3009C38.9919 17.6358 39.0516 17.0537 39.2661 16.4242C39.3973 16.0203 39.6 15.664 39.8384 15.3195L40.0053 15.0938C40.1484 14.9275 40.4106 14.6306 40.5776 14.4999C40.7445 14.3574 40.9114 14.2148 41.0902 14.0723L41.3286 13.906C41.4955 13.7872 41.6624 13.6803 41.8413 13.5853C42.0678 13.4428 42.4135 13.2408 42.6639 13.1458C42.7116 13.1221 42.7473 13.0983 42.795 13.0745C42.8427 13.0508 42.8904 13.0389 42.9381 13.0152C43.5103 12.7301 44.7979 12.2787 45.394 12.1124L46.0378 11.9224C46.1451 11.8867 46.2524 11.8511 46.3716 11.8273C46.3358 11.7679 46.1093 10.8177 46.0855 10.7227L45.8709 9.90308C45.847 9.81993 45.8351 9.70115 45.7994 9.62988C45.6563 9.64176 44.5118 9.99811 44.3806 10.0456C43.7607 10.2238 43.1169 10.4614 42.5208 10.7108C42.4612 10.7346 42.4135 10.7583 42.3539 10.7821L41.877 10.984C41.8294 11.0196 41.7817 11.0434 41.7221 11.0671C41.6148 11.1028 41.5075 11.1622 41.4121 11.2097C41.114 11.376 40.816 11.5304 40.5299 11.7204C40.1603 11.958 39.8026 12.2074 39.4569 12.4806C39.3377 12.5875 39.2065 12.6826 39.0873 12.8013C39.0516 12.8489 39.0158 12.8726 38.9681 12.9083C38.7773 13.0983 38.5747 13.2884 38.4078 13.5022L38.1097 13.8823C37.764 14.3336 37.4779 14.8088 37.2513 15.3195C37.2156 15.3908 37.1202 15.5808 37.1202 15.664Z" fill="#2C974B"/>
</g>
<defs>
<clipPath id="clip0_4651_11611">
<rect width="17.8948" height="15.8714" fill="white" transform="translate(28.4766 6.95605)"/>
</clipPath>
</defs>
</svg>
