<svg width="22" height="21" viewBox="0 0 22 21" fill="none" xmlns="http://www.w3.org/2000/svg">
<path d="M11.3879 18.2485C15.698 18.2485 19.1919 14.7546 19.1919 10.4446C19.1919 6.13458 15.698 2.64062 11.3879 2.64062C7.07794 2.64062 3.58398 6.13458 3.58398 10.4446C3.58398 14.7546 7.07794 18.2485 11.3879 18.2485Z" stroke="#2C974B" stroke-width="1.73421" stroke-miterlimit="10" stroke-linecap="round" stroke-linejoin="round"/>
<circle cx="11.5" cy="10.5" r="7.5" fill="#2C974B"/>
<path d="M8.53298 9.83188C8.19435 9.49327 7.64533 9.49327 7.3067 9.83188C6.96808 10.1705 6.96808 10.7195 7.3067 11.0581L8.53298 9.83188ZM10.5212 13.0463L9.90803 13.6595C10.0803 13.8318 10.317 13.9236 10.5604 13.9126C10.8038 13.9015 11.0314 13.7886 11.1873 13.6014L10.5212 13.0463ZM15.5228 8.39879C15.8294 8.03091 15.7797 7.48414 15.4118 7.17756C15.0439 6.87098 14.4971 6.92069 14.1906 7.28859L15.5228 8.39879ZM7.3067 11.0581L9.90803 13.6595L11.1343 12.4332L8.53298 9.83188L7.3067 11.0581ZM11.1873 13.6014L15.5228 8.39879L14.1906 7.28859L9.85505 12.4912L11.1873 13.6014Z" fill="white"/>
</svg>
