<svg width="18" height="18" viewBox="0 0 18 18" fill="none" xmlns="http://www.w3.org/2000/svg">
<path d="M9 15C9 15 2.25 11.2406 2.25 6.72925C2.25 2.21792 7.5 1.84197 9 5.37165C10.5 1.84197 15.75 2.21792 15.75 6.72925C15.75 11.2406 9 15 9 15Z" stroke="#F91880" stroke-width="2" stroke-linecap="round" stroke-linejoin="round"/>
<path d="M13.1246 3.00068C16.1246 3.37568 16.1246 6.37568 15.3746 8.62568C14.6246 10.8757 12.3746 13.1257 8.99955 15.0007C7.74957 14.0007 5.02455 11.7757 4.12455 10.8757C2.99955 9.75067 1.12455 5.6257 3.74955 3.3757C5.84955 1.5757 8.12455 3.87569 8.99955 5.25068C9.37455 4.37568 10.7246 2.70068 13.1246 3.00068Z" fill="#F91880"/>
</svg>
