<svg width="21" height="21" viewBox="0 0 21 21" fill="none" xmlns="http://www.w3.org/2000/svg">
<path d="M15.1895 13.4384C14.5561 13.4384 13.9895 13.6884 13.5561 14.0801L7.61445 10.6217C7.65612 10.4301 7.68945 10.2384 7.68945 10.0384C7.68945 9.83841 7.65612 9.64675 7.61445 9.45508L13.4895 6.03008C13.9395 6.44674 14.5311 6.70508 15.1895 6.70508C16.5728 6.70508 17.6895 5.58841 17.6895 4.20508C17.6895 2.82174 16.5728 1.70508 15.1895 1.70508C13.8061 1.70508 12.6895 2.82174 12.6895 4.20508C12.6895 4.40508 12.7228 4.59674 12.7645 4.78841L6.88945 8.21341C6.43945 7.79675 5.84779 7.53841 5.18945 7.53841C3.80612 7.53841 2.68945 8.65508 2.68945 10.0384C2.68945 11.4217 3.80612 12.5384 5.18945 12.5384C5.84779 12.5384 6.43945 12.2801 6.88945 11.8634L12.8228 15.3217C12.7811 15.4967 12.7561 15.6801 12.7561 15.8717C12.7561 17.2134 13.8478 18.2967 15.1895 18.2967C16.5311 18.2967 17.6228 17.2134 17.6228 15.8717C17.6228 14.5301 16.5311 13.4384 15.1895 13.4384ZM15.1895 3.37174C15.6478 3.37174 16.0228 3.74674 16.0228 4.20508C16.0228 4.66341 15.6478 5.03841 15.1895 5.03841C14.7311 5.03841 14.3561 4.66341 14.3561 4.20508C14.3561 3.74674 14.7311 3.37174 15.1895 3.37174ZM5.18945 10.8717C4.73112 10.8717 4.35612 10.4967 4.35612 10.0384C4.35612 9.58008 4.73112 9.20508 5.18945 9.20508C5.64779 9.20508 6.02279 9.58008 6.02279 10.0384C6.02279 10.4967 5.64779 10.8717 5.18945 10.8717ZM15.1895 16.7051C14.7311 16.7051 14.3561 16.3301 14.3561 15.8717C14.3561 15.4134 14.7311 15.0384 15.1895 15.0384C15.6478 15.0384 16.0228 15.4134 16.0228 15.8717C16.0228 16.3301 15.6478 16.7051 15.1895 16.7051Z" fill="#6C757D"/>
</svg>
