<svg width="24" height="24" viewBox="0 0 24 24" fill="none" xmlns="http://www.w3.org/2000/svg">
<path d="M20 18C20 19.1046 19.1046 20 18 20V22C20.2091 22 22 20.2091 22 18H20ZM18 20C16.8954 20 16 19.1046 16 18H14C14 20.2091 15.7909 22 18 22V20ZM16 18C16 16.8954 16.8954 16 18 16V14C15.7909 14 14 15.7909 14 18H16ZM18 16C19.1046 16 20 16.8954 20 18H22C22 15.7909 20.2091 14 18 14V16Z" fill="#6C757D"/>
<path d="M9.44721 12.6056C8.95324 12.3586 8.35256 12.5588 8.10557 13.0528C7.85858 13.5468 8.05881 14.1474 8.55279 14.3944L9.44721 12.6056ZM14.5528 17.3944C15.0468 17.6414 15.6474 17.4412 15.8944 16.9472C16.1414 16.4532 15.9412 15.8526 15.4472 15.6056L14.5528 17.3944ZM8.55279 14.3944L14.5528 17.3944L15.4472 15.6056L9.44721 12.6056L8.55279 14.3944Z" fill="#6C757D"/>
<path d="M8 12C8 13.1046 7.10457 14 6 14V16C8.20914 16 10 14.2091 10 12H8ZM6 14C4.89543 14 4 13.1046 4 12H2C2 14.2091 3.79086 16 6 16V14ZM4 12C4 10.8954 4.89543 10 6 10V8C3.79086 8 2 9.79086 2 12H4ZM6 10C7.10457 10 8 10.8954 8 12H10C10 9.79086 8.20914 8 6 8V10Z" fill="#6C757D"/>
<path d="M15.4472 8.39443C15.9412 8.14744 16.1414 7.54676 15.8944 7.05279C15.6474 6.55881 15.0468 6.35858 14.5528 6.60557L15.4472 8.39443ZM8.55279 9.60557C8.05881 9.85256 7.85858 10.4532 8.10557 10.9472C8.35256 11.4412 8.95324 11.6414 9.44721 11.3944L8.55279 9.60557ZM14.5528 6.60557L8.55279 9.60557L9.44721 11.3944L15.4472 8.39443L14.5528 6.60557Z" fill="#6C757D"/>
<path d="M20 6C20 7.10457 19.1046 8 18 8V10C20.2091 10 22 8.20914 22 6H20ZM18 8C16.8954 8 16 7.10457 16 6H14C14 8.20914 15.7909 10 18 10V8ZM16 6C16 4.89543 16.8954 4 18 4V2C15.7909 2 14 3.79086 14 6H16ZM18 4C19.1046 4 20 4.89543 20 6H22C22 3.79086 20.2091 2 18 2V4Z" fill="#6C757D"/>
</svg>
