<svg width="24" height="24" viewBox="0 0 24 24" fill="none" xmlns="http://www.w3.org/2000/svg">
<path d="M12.7803 2.3748C12.3993 1.8998 11.5993 1.8998 11.2183 2.3748L3.2183 12.3748C3.10094 12.522 3.02747 12.6993 3.00633 12.8864C2.98519 13.0735 3.01724 13.2627 3.09879 13.4324C3.18035 13.6021 3.3081 13.7454 3.46739 13.8457C3.62667 13.9461 3.81103 13.9995 3.9993 13.9998H7.9993V20.9998C7.9993 21.265 8.10466 21.5194 8.29219 21.7069C8.47973 21.8944 8.73408 21.9998 8.9993 21.9998H14.9993C15.2645 21.9998 15.5189 21.8944 15.7064 21.7069C15.8939 21.5194 15.9993 21.265 15.9993 20.9998V13.9998H19.9993C20.1876 13.9995 20.3719 13.9461 20.5312 13.8457C20.6905 13.7454 20.8182 13.6021 20.8998 13.4324C20.9814 13.2627 21.0134 13.0735 20.9923 12.8864C20.9711 12.6993 20.8977 12.522 20.7803 12.3748L12.7803 2.3748ZM14.9993 11.9998H13.9993V19.9998H9.9993V11.9998H6.0803L11.9993 4.6008L17.9183 11.9998H14.9993Z" fill="#6C757D"/>
</svg>
