<svg width="24" height="24" viewBox="0 0 24 24" fill="none" xmlns="http://www.w3.org/2000/svg">
<path d="M19 16C19 16.5523 18.5523 17 18 17L15 17C14.4477 17 14 16.5523 14 16L14 12L18 12C18.5523 12 19 12.4477 19 13L19 16Z" stroke="#2C974B" stroke-width="2" stroke-linecap="round" stroke-linejoin="round"/>
<path d="M10 16C10 16.5523 9.55228 17 9 17L6 17C5.44772 17 5 16.5523 5 16L5 12L9 12C9.55229 12 10 12.4477 10 13L10 16Z" stroke="#2C974B" stroke-width="2" stroke-linecap="round" stroke-linejoin="round"/>
<path d="M17 7C15.3431 7 14 8.34315 14 10L14 12" stroke="#2C974B" stroke-width="2" stroke-linecap="round" stroke-linejoin="round"/>
<path d="M8 7C6.34315 7 5 8.34315 5 10L5 12" stroke="#2C974B" stroke-width="2" stroke-linecap="round" stroke-linejoin="round"/>
</svg>
