<svg width="32" height="30" viewBox="0 0 32 30" fill="none" xmlns="http://www.w3.org/2000/svg">
<path d="M9.86999 24.3474L10.5519 23.2726C10.2288 23.0675 9.83053 23.0188 9.46747 23.1398L9.86999 24.3474ZM4.54297 26.123L3.33539 25.7205C3.18293 26.1779 3.30197 26.6822 3.6429 27.0231C3.98382 27.364 4.4881 27.4831 4.94549 27.3306L4.54297 26.123ZM6.31864 20.796L7.52622 21.1985C7.64724 20.8355 7.59849 20.4372 7.39346 20.1141L6.31864 20.796ZM15.999 27.3959C23.029 27.3959 28.728 21.697 28.728 14.667H26.1822C26.1822 20.291 21.623 24.8502 15.999 24.8502V27.3959ZM9.18806 25.4222C11.1583 26.6722 13.4961 27.3959 15.999 27.3959V24.8502C13.9932 24.8502 12.1264 24.2715 10.5519 23.2726L9.18806 25.4222ZM9.46747 23.1398L4.14044 24.9155L4.94549 27.3306L10.2725 25.5549L9.46747 23.1398ZM5.75054 26.5256L7.52622 21.1985L5.11107 20.3935L3.33539 25.7205L5.75054 26.5256ZM3.27007 14.667C3.27007 17.1699 3.99377 19.5077 5.24383 21.478L7.39346 20.1141C6.3945 18.5396 5.81586 16.6728 5.81586 14.667H3.27007ZM15.999 1.93804C8.96902 1.93804 3.27007 7.63699 3.27007 14.667H5.81586C5.81586 9.04299 10.375 4.48383 15.999 4.48383V1.93804ZM28.728 14.667C28.728 7.63699 23.029 1.93804 15.999 1.93804V4.48383C21.623 4.48383 26.1822 9.04299 26.1822 14.667H28.728Z" fill="#2C974B"/>
<path d="M5.81577 20.395L5.17932 25.4865L9.63487 24.2133C11.9685 25.6984 17.9087 27.6501 23.0003 23.5769C28.0918 19.5036 27.6675 13.8182 26.8189 11.4847C25.1216 7.66601 19.6903 0.919662 11.5438 4.48377C3.39727 8.04787 4.33073 16.5763 5.81577 20.395Z" fill="#2C974B"/>
</svg>
