<svg width="27" height="27" viewBox="0 0 27 27" fill="none" xmlns="http://www.w3.org/2000/svg">
<path d="M7.32702 23.1364L8.00896 22.0616C7.68581 21.8566 7.28756 21.8078 6.9245 21.9289L7.32702 23.1364ZM2 24.9121L0.792426 24.5096C0.639961 24.967 0.759005 25.4713 1.09993 25.8122C1.44085 26.1531 1.94513 26.2721 2.40252 26.1197L2 24.9121ZM3.77567 19.5851L4.98325 19.9876C5.10427 19.6245 5.05552 19.2263 4.85049 18.9032L3.77567 19.5851ZM13.4561 26.185C20.4861 26.185 26.185 20.4861 26.185 13.4561H23.6392C23.6392 19.0801 19.0801 23.6392 13.4561 23.6392V26.185ZM6.64509 24.2113C8.61534 25.4613 10.9531 26.185 13.4561 26.185V23.6392C11.4502 23.6392 9.58345 23.0606 8.00896 22.0616L6.64509 24.2113ZM6.9245 21.9289L1.59748 23.7045L2.40252 26.1197L7.72955 24.344L6.9245 21.9289ZM3.20757 25.3146L4.98325 19.9876L2.5681 19.1826L0.792426 24.5096L3.20757 25.3146ZM0.727105 13.4561C0.727105 15.959 1.4508 18.2968 2.70086 20.267L4.85049 18.9032C3.85153 17.3287 3.27289 15.4619 3.27289 13.4561H0.727105ZM13.4561 0.727105C6.42605 0.727105 0.727105 6.42605 0.727105 13.4561H3.27289C3.27289 7.83205 7.83205 3.27289 13.4561 3.27289V0.727105ZM26.185 13.4561C26.185 6.42605 20.4861 0.727105 13.4561 0.727105V3.27289C19.0801 3.27289 23.6392 7.83205 23.6392 13.4561H26.185Z" fill="#2C974B"/>
<path d="M3.2728 19.184L2.63635 24.2756L7.0919 23.0024C9.42554 24.4874 15.3657 26.4392 20.4573 22.3659C25.5489 18.2927 25.1246 12.6073 24.276 10.2738C22.5786 6.45507 17.1474 -0.291275 9.00083 3.27283C0.854302 6.83694 1.78776 15.3653 3.2728 19.184Z" fill="#2C974B"/>
</svg>
