<svg width="24" height="24" viewBox="0 0 24 24" fill="none" xmlns="http://www.w3.org/2000/svg">
<path d="M15.7071 11.7071C16.0976 11.3166 16.0976 10.6834 15.7071 10.2929C15.3166 9.90237 14.6834 9.90237 14.2929 10.2929L15.7071 11.7071ZM12 14L11.2929 14.7071C11.4804 14.8946 11.7348 15 12 15C12.2652 15 12.5196 14.8946 12.7071 14.7071L12 14ZM9.70711 10.2929C9.31658 9.90237 8.68342 9.90237 8.29289 10.2929C7.90237 10.6834 7.90237 11.3166 8.29289 11.7071L9.70711 10.2929ZM14.2929 10.2929L11.2929 13.2929L12.7071 14.7071L15.7071 11.7071L14.2929 10.2929ZM12.7071 13.2929L9.70711 10.2929L8.29289 11.7071L11.2929 14.7071L12.7071 13.2929Z" fill="#333B47"/>
</svg>
