<svg width="14" height="14" viewBox="0 0 14 14" fill="none" xmlns="http://www.w3.org/2000/svg">
<path d="M9.8 0C10.5732 0 11.2 0.626801 11.2 1.4L1.4 1.4L1.4 9.22353C0.626802 9.22353 0 8.59673 0 7.82353V1.4C0 0.6268 0.626801 0 1.4 0H9.8Z" fill="#595959"/>
<path d="M8.4 14L6.53333 12.0235H4.2C3.4268 12.0235 2.8 11.3967 2.8 10.6235V4.2C2.8 3.4268 3.4268 2.8 4.2 2.8H12.6C13.3732 2.8 14 3.4268 14 4.2V10.6235C14 11.3967 13.3732 12.0235 12.6 12.0235H10.2667L8.4 14ZM9.6632 10.6235L12.6 10.6235V4.2L4.2 4.2V10.6235H7.1368L8.4 11.961L9.6632 10.6235Z" fill="#595959"/>
</svg>
