<svg width="28" height="28" viewBox="0 0 28 28" fill="none" xmlns="http://www.w3.org/2000/svg">
<path d="M12.5444 19.6C12.5444 19.3231 12.6265 19.0524 12.7804 18.8222C12.9342 18.592 13.1529 18.4125 13.4087 18.3066C13.6645 18.2006 13.946 18.1729 14.2176 18.2269C14.4891 18.2809 14.7386 18.4143 14.9344 18.6101C15.1302 18.8058 15.2635 19.0553 15.3175 19.3269C15.3716 19.5984 15.3438 19.8799 15.2379 20.1358C15.1319 20.3916 14.9525 20.6102 14.7222 20.7641C14.492 20.9179 14.2213 21 13.9444 21C13.5731 21 13.217 20.8525 12.9545 20.5899C12.6919 20.3274 12.5444 19.9713 12.5444 19.6V19.6ZM12.5444 14C12.5444 13.7231 12.6265 13.4524 12.7804 13.2222C12.9342 12.992 13.1529 12.8125 13.4087 12.7066C13.6645 12.6006 13.946 12.5729 14.2176 12.6269C14.4891 12.6809 14.7386 12.8143 14.9344 13.0101C15.1302 13.2058 15.2635 13.4553 15.3175 13.7269C15.3716 13.9984 15.3438 14.2799 15.2379 14.5358C15.1319 14.7916 14.9525 15.0102 14.7222 15.1641C14.492 15.3179 14.2213 15.4 13.9444 15.4C13.5731 15.4 13.217 15.2525 12.9545 14.99C12.6919 14.7274 12.5444 14.3713 12.5444 14V14ZM12.5444 8.4C12.5444 8.12311 12.6265 7.85243 12.7804 7.6222C12.9342 7.39197 13.1529 7.21253 13.4087 7.10657C13.6645 7.00061 13.946 6.97288 14.2176 7.0269C14.4891 7.08092 14.7386 7.21426 14.9344 7.41005C15.1302 7.60584 15.2635 7.8553 15.3175 8.12687C15.3716 8.39845 15.3438 8.67994 15.2379 8.93576C15.1319 9.19157 14.9525 9.41022 14.7222 9.56406C14.492 9.71789 14.2213 9.8 13.9444 9.8C13.5731 9.8 13.217 9.6525 12.9545 9.38995C12.6919 9.1274 12.5444 8.7713 12.5444 8.4V8.4Z" fill="#A2ABB3"/>
</svg>
