<svg width="74" height="66" viewBox="0 0 74 66" fill="none" xmlns="http://www.w3.org/2000/svg">
<path fill-rule="evenodd" clip-rule="evenodd" d="M0 9.37573V55.9599C0 58.9051 1.1781 61.8504 3.38704 63.7157C4.71241 64.8447 6.3323 65.581 8.34489 65.581H57.4325C59.2487 65.581 60.8686 64.8447 61.8995 64.0593C64.6974 61.9976 65.7283 59.3469 65.7774 55.9108C65.7774 55.6653 65.8265 55.5672 65.8265 55.3217V54.929C65.7774 45.9951 65.8265 36.963 65.8265 27.9799C63.5193 28.7653 60.9668 29.7471 59.5432 30.4834C59.396 30.5325 59.2487 30.5816 59.1015 30.6797V46.2405C59.1015 47.1241 59.0524 47.9095 59.0524 48.744C59.0524 50.413 59.0524 52.131 59.0524 53.8491C59.0524 57.138 59.2978 58.856 56.5489 59.0033C56.1071 59.0033 55.7144 58.9542 55.3217 59.0033C54.2909 59.1506 17.3279 59.0524 16.2971 59.0524C15.2662 59.0524 14.3827 59.0033 13.4009 59.0033C12.0265 59.0033 8.93394 59.1505 7.85402 58.6597C7.16679 58.3651 6.77408 57.6779 6.77408 56.7453C6.77408 56.4998 6.725 56.4016 6.725 56.1071C6.725 55.8617 6.725 55.6162 6.725 55.3708C6.725 54.8308 6.67591 54.4381 6.67591 53.9473L6.62682 38.9755C6.62682 36.8648 6.67591 34.9013 6.67591 32.8396V23.6111C6.67591 22.5312 6.725 21.6476 6.725 20.5677V11.3392C6.725 10.2102 6.62683 8.05037 7.41223 7.36314C8.09945 6.725 8.93394 6.725 9.8666 6.725C10.2102 6.725 10.3084 6.67591 10.6029 6.67591C22.9239 6.52865 35.5885 6.67591 47.8604 6.67591C49.3821 6.67591 56.058 6.57774 57.2361 6.82317C58.1688 7.01952 58.7578 7.46131 58.9542 8.39398C59.1015 9.32664 58.9542 10.4557 59.0524 11.4374C59.1505 12.4192 59.1015 13.5973 59.1015 14.6281C59.1015 15.7571 59.1506 16.6898 59.1506 17.7697V20.4204C61.2122 19.5859 63.3721 18.8005 65.4828 18.2115L65.8265 18.0642V11.192C65.8265 8.6885 65.5319 6.03777 64.2066 4.02518C64.0593 3.73066 63.863 3.5343 63.6666 3.23978C62.194 1.37445 59.2487 0 56.7943 0H9.13029C7.9031 0 6.47956 0.392699 5.35055 0.834487C1.96351 2.25803 0 5.64507 0 9.37573Z" fill="white"/>
<path fill-rule="evenodd" clip-rule="evenodd" d="M35.5882 35.9794C35.2445 35.7339 34.3119 34.7522 33.9683 34.3595C33.1338 33.5741 32.2993 32.7887 31.3666 32.1506L30.8758 31.8069C30.7285 31.7088 30.5322 31.6106 30.3849 31.5124C30.2376 31.3651 30.0413 31.267 29.894 31.1688C27.7832 30.138 25.7216 29.4016 23.3163 28.7635C21.2055 28.2726 18.8002 27.6836 16.5422 27.929C16.2967 27.9781 16.0513 28.0272 15.8059 28.0763C15.8059 28.9108 15.7568 29.5489 15.7568 30.3834C15.7568 31.1197 15.6586 31.9542 15.6586 32.6905C15.6586 34.2613 15.5113 35.783 15.5113 37.3538C15.7077 37.3538 15.7077 37.3047 15.9531 37.3047C18.9475 37.3047 20.2238 37.3538 22.9236 38.3847C24.5925 38.9737 26.1143 39.9555 27.4396 41.0845C27.5378 41.1827 27.5869 41.2318 27.6851 41.3299C28.1759 41.6735 28.6668 42.2135 29.0595 42.6553L29.5013 43.1953C30.6794 44.6188 31.563 45.8951 32.4466 47.515C33.3301 49.1839 34.0174 50.902 34.6064 52.6692C34.6555 52.9146 34.7537 53.2582 34.8519 53.4546C35.1464 53.3073 35.5882 53.2091 35.9318 53.111L39.2697 52.031C39.6624 51.8838 40.0061 51.7856 40.3497 51.6874L42.6077 50.9511C42.9513 50.8529 43.4422 50.7547 43.7367 50.6075C43.7367 50.4602 43.6876 50.2639 43.6876 50.0675C43.5894 49.233 43.4422 48.3004 43.4422 47.4168C43.4422 47.1714 43.3931 47.1223 43.3931 46.8768C43.2949 44.1279 43.5404 41.7226 44.4239 39.121C44.9639 37.452 45.7984 35.9794 46.7801 34.5558L47.4674 33.6232C48.0564 32.936 49.1363 31.7088 49.8236 31.1688C50.5108 30.5797 51.198 29.9907 51.9343 29.4016L52.9161 28.7144C53.6033 28.2235 54.2905 27.7818 55.0269 27.3891C55.9595 26.8 57.383 25.9655 58.4139 25.5728C58.6102 25.4746 58.7575 25.3765 58.9539 25.2783C59.1502 25.1801 59.3466 25.131 59.5429 25.0328C61.8991 23.8547 67.2006 21.9894 69.655 21.3022L72.3057 20.5168C72.7475 20.3695 73.1892 20.2223 73.6801 20.1241C73.5329 19.8787 72.6002 15.9516 72.502 15.5589L71.6184 12.1719C71.5203 11.8283 71.4712 11.3374 71.3239 11.0429C70.7349 11.092 66.0225 12.5646 65.4825 12.761C62.9299 13.4973 60.2792 14.479 57.8248 15.5099C57.5794 15.608 57.3831 15.7062 57.1376 15.8044L55.1741 16.6389C54.9778 16.7861 54.7814 16.8843 54.536 16.9825C54.0942 17.1297 53.6524 17.3752 53.2597 17.5715C52.0325 18.2588 50.8053 18.8969 49.6272 19.6823C48.1055 20.6641 46.6329 21.6949 45.2093 22.8239C44.7185 23.2657 44.1785 23.6584 43.6876 24.1493C43.5404 24.3456 43.3931 24.4438 43.1967 24.5911C42.4113 25.3765 41.5769 26.1619 40.8896 27.0454L39.6624 28.6162C38.2389 30.4816 37.0608 32.4451 36.1281 34.5558C35.9809 34.8504 35.5882 35.6358 35.5882 35.9794Z" fill="white"/>
</svg>
