<svg width="12" height="12" viewBox="0 0 12 12" xmlns="http://www.w3.org/2000/svg">
<path fill-rule="evenodd" clip-rule="evenodd" d="M6 12C9.31371 12 12 9.31371 12 6C12 2.68629 9.31371 0 6 0C2.68629 0 0 2.68629 0 6C0 9.31371 2.68629 12 6 12ZM4.64417 6.29861C4.69339 6.35417 4.82701 6.49306 4.87623 6.52778C4.87623 6.47917 4.93249 6.36806 4.95359 6.32639C5.0872 6.02778 5.25598 5.75 5.45992 5.48611L5.63573 5.26389C5.71783 5.15965 5.8146 5.06507 5.90973 4.9721C5.92868 4.95358 5.94756 4.93512 5.96625 4.91667C5.96945 4.91429 5.97257 4.91201 5.9756 4.90978C5.99919 4.89249 6.01788 4.87878 6.03657 4.85417C6.07929 4.81199 6.12459 4.77493 6.16934 4.73833C6.19827 4.71467 6.22696 4.69121 6.25457 4.66667C6.45851 4.50694 6.66948 4.36111 6.88749 4.22222C7.01918 4.13552 7.15515 4.06151 7.29207 3.98699C7.33062 3.966 7.36925 3.94497 7.40788 3.92361C7.41892 3.91816 7.43022 3.91245 7.44175 3.90662C7.48897 3.88275 7.53984 3.85702 7.59072 3.84028C7.62588 3.82639 7.65401 3.8125 7.68214 3.79167L7.96344 3.67361C7.98102 3.66667 7.99684 3.65972 8.01266 3.65278C8.02849 3.64583 8.04431 3.63889 8.06189 3.63194C8.41351 3.48611 8.79325 3.34722 9.15893 3.24306C9.23629 3.21528 9.9114 3.00694 9.99578 3C10.0092 3.02651 10.0169 3.06425 10.0244 3.10073C10.0287 3.12159 10.0329 3.14203 10.038 3.15972L10.1646 3.63889C10.1668 3.64781 10.1722 3.66964 10.1796 3.70013C10.2186 3.85948 10.3156 4.25558 10.3333 4.28472C10.263 4.29861 10.1997 4.31944 10.1364 4.34027L10.1364 4.34028L9.75668 4.45139C9.40507 4.54861 8.64557 4.8125 8.30802 4.97917C8.29396 4.98611 8.27989 4.99132 8.26583 4.99653C8.25176 5.00174 8.2377 5.00694 8.22363 5.01389C8.20957 5.02083 8.19726 5.02778 8.18495 5.03472C8.17265 5.04167 8.16034 5.04861 8.14628 5.05556C7.9986 5.11111 7.79466 5.22917 7.66104 5.3125C7.55556 5.36806 7.45711 5.43056 7.35865 5.5L7.21801 5.59722C7.11252 5.68056 7.01407 5.76389 6.91562 5.84722C6.81716 5.92361 6.66245 6.09722 6.57806 6.19444L6.47961 6.32639C6.33896 6.52778 6.21941 6.73611 6.14206 6.97222C6.01547 7.34028 5.98031 7.68056 5.99438 8.06944C5.99438 8.08681 5.99614 8.09722 5.99789 8.10764C5.99965 8.11806 6.00141 8.12847 6.00141 8.14583C6.00141 8.24505 6.0147 8.34865 6.02722 8.4462C6.03047 8.47155 6.03367 8.49648 6.03657 8.52083C6.03657 8.53572 6.03859 8.55061 6.04047 8.56442C6.04209 8.57639 6.0436 8.58755 6.0436 8.59722C6.01301 8.61233 5.96762 8.62378 5.92622 8.63423C5.91052 8.6382 5.89539 8.64202 5.88186 8.64583L5.55837 8.75L5.55834 8.75001C5.50912 8.7639 5.45991 8.77778 5.40366 8.79861L4.92546 8.95139C4.91418 8.95457 4.90216 8.95776 4.88982 8.96102C4.84833 8.97201 4.80327 8.98394 4.77075 9C4.75668 8.97222 4.74262 8.92361 4.73559 8.88889C4.6512 8.63889 4.55275 8.39583 4.42616 8.15972C4.29958 7.93056 4.173 7.75 4.00422 7.54861L3.94093 7.47222C3.88467 7.40972 3.81435 7.33333 3.74403 7.28472L3.70886 7.25C3.51899 7.09028 3.30099 6.95139 3.06189 6.86806C2.67511 6.72222 2.49227 6.71528 2.06329 6.71528C2.04473 6.71528 2.03597 6.71721 2.0277 6.71904C2.0203 6.72067 2.01328 6.72222 2 6.72222C2 6.61111 2.00528 6.50174 2.01055 6.39236C2.01583 6.28299 2.0211 6.17361 2.0211 6.0625C2.0211 6.01042 2.02462 5.95486 2.02813 5.89931C2.03165 5.84375 2.03517 5.78819 2.03517 5.73611C2.03517 5.67708 2.03692 5.625 2.03868 5.57292C2.04044 5.52083 2.0422 5.46875 2.0422 5.40972L2.14768 5.38889C2.45966 5.3554 2.79125 5.43172 3.0857 5.49948C3.09657 5.50198 3.10738 5.50447 3.11815 5.50694C3.46273 5.59722 3.75809 5.70139 4.06048 5.84722C4.06628 5.85104 4.07261 5.85486 4.07918 5.85882C4.09651 5.86927 4.11551 5.88073 4.13081 5.89583C4.14135 5.90278 4.15366 5.90972 4.16597 5.91667C4.17827 5.92361 4.19058 5.93056 4.20113 5.9375L4.27145 5.98611C4.40507 6.07639 4.52461 6.1875 4.64416 6.29861L4.64417 6.29861Z" />
</svg>
