<svg width="18" height="21" viewBox="0 0 18 21" fill="none" xmlns="http://www.w3.org/2000/svg">
<path d="M12 15.5H6V16.5C6 18.1569 7.34315 19.5 9 19.5C10.6569 19.5 12 18.1569 12 16.5V15.5Z" stroke="#6C757D" stroke-width="2" stroke-linecap="round" stroke-linejoin="round"/>
<path d="M2 15.5H16C16.5523 15.5 17 15.0523 17 14.5V13.9142C17 13.649 16.8946 13.3947 16.7071 13.2071L16.1963 12.6963C16.0706 12.5706 16 12.4001 16 12.2224V8.5C16 4.634 12.866 1.49999 8.99998 1.5C5.134 1.50001 2 4.63401 2 8.5V12.2224C2 12.4002 1.9294 12.5706 1.80372 12.6963L1.29289 13.2071C1.10536 13.3947 1 13.649 1 13.9142V14.5C1 15.0523 1.44772 15.5 2 15.5Z" stroke="#6C757D" stroke-width="2" stroke-linecap="round" stroke-linejoin="round"/>
</svg>
