<svg width="21" height="19" viewBox="0 0 21 19" fill="none" xmlns="http://www.w3.org/2000/svg">
<path fill-rule="evenodd" clip-rule="evenodd" d="M0 3.07335V15.8593C0 16.6677 0.323353 17.476 0.929641 17.988C1.29341 18.2979 1.73802 18.5 2.29042 18.5H15.7635C16.262 18.5 16.7066 18.2979 16.9895 18.0823C17.7575 17.5165 18.0404 16.7889 18.0539 15.8458C18.0539 15.7784 18.0674 15.7515 18.0674 15.6841V15.5763C18.0539 13.1243 18.0674 10.6452 18.0674 8.17964C17.4341 8.39521 16.7335 8.66467 16.3428 8.86677C16.3024 8.88024 16.262 8.89371 16.2216 8.92066V13.1916C16.2216 13.4341 16.2081 13.6497 16.2081 13.8787C16.2081 14.3368 16.2081 14.8084 16.2081 15.2799C16.2081 16.1826 16.2755 16.6542 15.521 16.6946C15.3997 16.6946 15.2919 16.6811 15.1841 16.6946C14.9012 16.735 4.75599 16.7081 4.47305 16.7081C4.19012 16.7081 3.94761 16.6946 3.67814 16.6946C3.3009 16.6946 2.4521 16.735 2.15569 16.6003C1.96707 16.5195 1.85928 16.3308 1.85928 16.0749C1.85928 16.0075 1.84581 15.9805 1.84581 15.8997C1.84581 15.8323 1.84581 15.765 1.84581 15.6976C1.84581 15.5494 1.83234 15.4416 1.83234 15.3069L1.81886 11.1976C1.81886 10.6183 1.83234 10.0793 1.83234 9.51347V6.98054C1.83234 6.68413 1.84581 6.44162 1.84581 6.14521V3.61228C1.84581 3.3024 1.81886 2.70958 2.03443 2.52096C2.22305 2.34581 2.4521 2.34581 2.70808 2.34581C2.8024 2.34581 2.82934 2.33234 2.91018 2.33234C6.29192 2.29192 9.76797 2.33234 13.1362 2.33234C13.5539 2.33234 15.3862 2.30539 15.7096 2.37275C15.9656 2.42665 16.1272 2.5479 16.1811 2.80389C16.2216 3.05988 16.1811 3.36976 16.2081 3.63922C16.235 3.90868 16.2216 4.23204 16.2216 4.51497C16.2216 4.82485 16.235 5.08084 16.235 5.37725V6.10479C16.8009 5.87575 17.3937 5.66018 17.9731 5.4985L18.0674 5.45808V3.57186C18.0674 2.88473 17.9865 2.15719 17.6228 1.60479C17.5823 1.52395 17.5284 1.47006 17.4746 1.38922C17.0704 0.877245 16.262 0.5 15.5883 0.5H2.50599C2.16916 0.5 1.77844 0.607784 1.46856 0.729042C0.538922 1.11976 0 2.0494 0 3.07335Z" fill="#6C757D"/>
<path fill-rule="evenodd" clip-rule="evenodd" d="M9.76829 10.3736C9.67398 10.3062 9.41799 10.0368 9.32368 9.929C9.09464 9.71343 8.8656 9.49786 8.60961 9.32271L8.47488 9.2284C8.43446 9.20145 8.38057 9.17451 8.34015 9.14756C8.29973 9.10714 8.24584 9.08019 8.20542 9.05325C7.62608 8.77031 7.06021 8.56822 6.40003 8.39307C5.82069 8.25834 5.16051 8.09666 4.54075 8.16403C4.47338 8.1775 4.40602 8.19097 4.33865 8.20445C4.33865 8.43349 4.32518 8.60864 4.32518 8.83768C4.32518 9.03978 4.29823 9.26882 4.29823 9.47091C4.29823 9.90205 4.25781 10.3197 4.25781 10.7509C4.3117 10.7509 4.3117 10.7374 4.37907 10.7374C5.20093 10.7374 5.55123 10.7509 6.29224 11.0338C6.75033 11.1955 7.16799 11.4649 7.53176 11.7748C7.55871 11.8018 7.57218 11.8152 7.59913 11.8422C7.73386 11.9365 7.86859 12.0847 7.97638 12.2059L8.09763 12.3541C8.42099 12.7449 8.6635 13.0952 8.90602 13.5398C9.14853 13.9979 9.33715 14.4694 9.49883 14.9544C9.5123 15.0218 9.53925 15.1161 9.5662 15.17C9.64703 15.1296 9.76829 15.1026 9.8626 15.0757L10.7788 14.7793C10.8866 14.7389 10.9809 14.7119 11.0752 14.685L11.6949 14.4829C11.7892 14.4559 11.924 14.429 12.0048 14.3886C12.0048 14.3482 11.9913 14.2943 11.9913 14.2404C11.9644 14.0113 11.924 13.7553 11.924 13.5128C11.924 13.4455 11.9105 13.432 11.9105 13.3646C11.8836 12.6101 11.9509 11.95 12.1934 11.2359C12.3416 10.7778 12.5707 10.3736 12.8401 9.98289L13.0288 9.7269C13.1904 9.53828 13.4869 9.20145 13.6755 9.05325C13.8641 8.89157 14.0527 8.7299 14.2548 8.56822L14.5243 8.3796C14.7129 8.24487 14.9015 8.12361 15.1036 8.01582C15.3596 7.85415 15.7503 7.6251 16.0333 7.51732C16.0872 7.49037 16.1276 7.46343 16.1815 7.43648C16.2354 7.40954 16.2892 7.39606 16.3431 7.36912C16.9898 7.04576 18.4449 6.53379 19.1186 6.34516L19.8461 6.1296C19.9674 6.08918 20.0887 6.04876 20.2234 6.02181C20.183 5.95445 19.927 4.8766 19.9 4.76882L19.6575 3.83918C19.6306 3.74487 19.6171 3.61014 19.5767 3.5293C19.415 3.54277 18.1216 3.94696 17.9734 4.00085C17.2728 4.20295 16.5452 4.47241 15.8716 4.75534C15.8042 4.78229 15.7503 4.80924 15.683 4.83618L15.144 5.06522C15.0901 5.10564 15.0363 5.13259 14.9689 5.15954C14.8476 5.19996 14.7264 5.26732 14.6186 5.32121C14.2818 5.50984 13.9449 5.68499 13.6216 5.90055C13.2039 6.17002 12.7997 6.45295 12.409 6.76283C12.2743 6.88409 12.1261 6.99187 11.9913 7.1266C11.9509 7.18049 11.9105 7.20744 11.8566 7.24786C11.641 7.46343 11.412 7.679 11.2234 7.92151L10.8866 8.35265C10.4958 8.86463 10.1725 9.40355 9.91649 9.98289C9.87608 10.0637 9.76829 10.2793 9.76829 10.3736Z" fill="#6C757D"/>
</svg>
