<svg width="24" height="24" viewBox="0 0 24 24" fill="none" xmlns="http://www.w3.org/2000/svg">
<path d="M14 12L14 11C13.4477 11 13 11.4477 13 12L14 12ZM18 12L18 11L18 12ZM19 13L20 13L20 13L19 13ZM15 17L15 16L15 16L15 17ZM14 16L13 16L14 16ZM18 17L18 18L18 18L18 17ZM19 16L18 16L18 16L19 16ZM18 16L15 16L15 18L18 18L18 16ZM15 16L15 12L13 12L13 16L15 16ZM14 13L18 13L18 11L14 11L14 13ZM18 13L18 16L20 16L20 13L18 13ZM18 13L18 13L20 13C20 11.8954 19.1046 11 18 11L18 13ZM15 16L15 16L13 16C13 17.1046 13.8954 18 15 18L15 16ZM18 18C19.1046 18 20 17.1046 20 16L18 16L18 16L18 18Z" fill="#333B47"/>
<path d="M5 12L5 11C4.44772 11 4 11.4477 4 12L5 12ZM9 12L9 11L9 12ZM10 13L11 13L11 13L10 13ZM6 17L6 16L6 16L6 17ZM5 16L4 16L5 16ZM9 17L9 18L9 18L9 17ZM10 16L9 16L9 16L10 16ZM9 16L6 16L6 18L9 18L9 16ZM6 16L6 12L4 12L4 16L6 16ZM5 13L9 13L9 11L5 11L5 13ZM9 13L9 16L11 16L11 13L9 13ZM9 13L9 13L11 13C11 11.8954 10.1046 11 9 11L9 13ZM6 16L6 16L4 16C4 17.1046 4.89543 18 6 18L6 16ZM9 18C10.1046 18 11 17.1046 11 16L9 16L9 16L9 18Z" fill="#333B47"/>
<path d="M17 7C15.3431 7 14 8.34315 14 10L14 12" stroke="#333B47" stroke-width="2" stroke-linecap="round" stroke-linejoin="round"/>
<path d="M8 7C6.34315 7 5 8.34315 5 10L5 12" stroke="#333B47" stroke-width="2" stroke-linecap="round" stroke-linejoin="round"/>
</svg>
