<svg width="24" height="24" viewBox="0 0 24 24" fill="none" xmlns="http://www.w3.org/2000/svg">
<path d="M20 20L20 19L20 19L20 20ZM4 20L4 21L4 21L4 20ZM3 19L4 19L4 19L3 19ZM3 6L3 5C2.73478 5 2.48043 5.10536 2.29289 5.29289C2.10536 5.48043 2 5.73478 2 6L3 6ZM21 7L22 7L22 7L21 7ZM21 19L20 19L20 19L21 19ZM20 6L20 5L20 5L20 6ZM20 19L4 19L4 21L20 21L20 19ZM4 19L4 6L2 6L2 19L4 19ZM20 7L20 19L22 19L22 7L20 7ZM3 7L20 7L20 5L3 5L3 7ZM22 7C22 5.89543 21.1046 5 20 5L20 7L20 7L22 7ZM4 19L4 19L2 19C2 20.1046 2.89543 21 4 21L4 19ZM20 21C21.1046 21 22 20.1046 22 19L20 19L20 19L20 21Z" fill="#333B47"/>
<path d="M11 16C11 16.5523 11.4477 17 12 17C12.5523 17 13 16.5523 13 16H11ZM13 10C13 9.44772 12.5523 9 12 9C11.4477 9 11 9.44772 11 10H13ZM13 16V10H11V16H13Z" fill="#333B47"/>
<path d="M9 12C8.44772 12 8 12.4477 8 13C8 13.5523 8.44772 14 9 14L9 12ZM15 14C15.5523 14 16 13.5523 16 13C16 12.4477 15.5523 12 15 12L15 14ZM9 14L15 14L15 12L9 12L9 14Z" fill="#333B47"/>
<path d="M12 6L10.2929 4.29289C10.1054 4.10536 9.851 4 9.58579 4H4C3.44772 4 3 4.44772 3 5V6" stroke="#333B47" stroke-width="2" stroke-linecap="round" stroke-linejoin="round"/>
</svg>
