<svg width="24" height="24" viewBox="0 0 24 24" fill="none" xmlns="http://www.w3.org/2000/svg">
<path d="M12 21C16.9706 21 21 16.9706 21 12C21 7.02944 16.9706 3 12 3C7.02944 3 3 7.02944 3 12C3 16.9706 7.02944 21 12 21Z" stroke="#333B47" stroke-width="2" stroke-miterlimit="10" stroke-linecap="round" stroke-linejoin="round"/>
<path d="M8.70711 11.2929C8.31658 10.9024 7.68342 10.9024 7.29289 11.2929C6.90237 11.6834 6.90237 12.3166 7.29289 12.7071L8.70711 11.2929ZM11 15L10.2929 15.7071C10.4916 15.9058 10.7646 16.0117 11.0453 15.999C11.326 15.9862 11.5884 15.856 11.7682 15.6402L11 15ZM16.7682 9.64018C17.1218 9.21591 17.0645 8.58534 16.6402 8.23178C16.2159 7.87821 15.5853 7.93554 15.2318 8.35982L16.7682 9.64018ZM7.29289 12.7071L10.2929 15.7071L11.7071 14.2929L8.70711 11.2929L7.29289 12.7071ZM11.7682 15.6402L16.7682 9.64018L15.2318 8.35982L10.2318 14.3598L11.7682 15.6402Z" fill="#333B47"/>
</svg>
