<svg width="180" height="180" viewBox="0 0 180 180" fill="none" xmlns="http://www.w3.org/2000/svg">
<rect width="180" height="180" fill="#F7F9F8"/>
<path d="M55.422 92.154H51.639L50.989 94H49.442L52.679 84.952H54.395L57.632 94H56.072L55.422 92.154ZM55.006 90.945L53.537 86.746L52.055 90.945H55.006ZM58.2855 90.386C58.2855 89.6667 58.4328 89.0297 58.7275 88.475C59.0308 87.9203 59.4381 87.4913 59.9495 87.188C60.4695 86.876 61.0458 86.72 61.6785 86.72C62.1465 86.72 62.6058 86.824 63.0565 87.032C63.5158 87.2313 63.8798 87.5 64.1485 87.838V84.38H65.6435V94H64.1485V92.921C63.9058 93.2677 63.5678 93.5537 63.1345 93.779C62.7098 94.0043 62.2201 94.117 61.6655 94.117C61.0415 94.117 60.4695 93.961 59.9495 93.649C59.4381 93.3283 59.0308 92.8863 58.7275 92.323C58.4328 91.751 58.2855 91.1053 58.2855 90.386ZM64.1485 90.412C64.1485 89.918 64.0445 89.489 63.8365 89.125C63.6371 88.761 63.3728 88.4837 63.0435 88.293C62.7141 88.1023 62.3588 88.007 61.9775 88.007C61.5961 88.007 61.2408 88.1023 60.9115 88.293C60.5821 88.475 60.3135 88.748 60.1055 89.112C59.9061 89.4673 59.8065 89.892 59.8065 90.386C59.8065 90.88 59.9061 91.3133 60.1055 91.686C60.3135 92.0587 60.5821 92.3447 60.9115 92.544C61.2495 92.7347 61.6048 92.83 61.9775 92.83C62.3588 92.83 62.7141 92.7347 63.0435 92.544C63.3728 92.3533 63.6371 92.076 63.8365 91.712C64.0445 91.3393 64.1485 90.906 64.1485 90.412ZM66.836 90.386C66.836 89.6667 66.9833 89.0297 67.278 88.475C67.5813 87.9203 67.9887 87.4913 68.5 87.188C69.02 86.876 69.5963 86.72 70.229 86.72C70.697 86.72 71.1563 86.824 71.607 87.032C72.0663 87.2313 72.4303 87.5 72.699 87.838V84.38H74.194V94H72.699V92.921C72.4563 93.2677 72.1183 93.5537 71.685 93.779C71.2603 94.0043 70.7707 94.117 70.216 94.117C69.592 94.117 69.02 93.961 68.5 93.649C67.9887 93.3283 67.5813 92.8863 67.278 92.323C66.9833 91.751 66.836 91.1053 66.836 90.386ZM72.699 90.412C72.699 89.918 72.595 89.489 72.387 89.125C72.1877 88.761 71.9233 88.4837 71.594 88.293C71.2647 88.1023 70.9093 88.007 70.528 88.007C70.1467 88.007 69.7913 88.1023 69.462 88.293C69.1327 88.475 68.864 88.748 68.656 89.112C68.4567 89.4673 68.357 89.892 68.357 90.386C68.357 90.88 68.4567 91.3133 68.656 91.686C68.864 92.0587 69.1327 92.3447 69.462 92.544C69.8 92.7347 70.1553 92.83 70.528 92.83C70.9093 92.83 71.2647 92.7347 71.594 92.544C71.9233 92.3533 72.1877 92.076 72.387 91.712C72.595 91.3393 72.699 90.906 72.699 90.412ZM80.4795 84.965V94H78.9975V84.965H80.4795ZM90.8362 86.72C91.3996 86.72 91.9022 86.837 92.3442 87.071C92.7949 87.305 93.1459 87.6517 93.3972 88.111C93.6572 88.5703 93.7872 89.125 93.7872 89.775V94H92.3182V89.996C92.3182 89.3547 92.1579 88.865 91.8372 88.527C91.5166 88.1803 91.0789 88.007 90.5242 88.007C89.9696 88.007 89.5276 88.1803 89.1982 88.527C88.8776 88.865 88.7172 89.3547 88.7172 89.996V94H87.2482V89.996C87.2482 89.3547 87.0879 88.865 86.7672 88.527C86.4466 88.1803 86.0089 88.007 85.4542 88.007C84.8996 88.007 84.4576 88.1803 84.1282 88.527C83.8076 88.865 83.6472 89.3547 83.6472 89.996V94H82.1652V86.837H83.6472V87.656C83.8899 87.3613 84.1976 87.1317 84.5702 86.967C84.9429 86.8023 85.3416 86.72 85.7662 86.72C86.3382 86.72 86.8496 86.8413 87.3002 87.084C87.7509 87.3267 88.0976 87.6777 88.3402 88.137C88.5569 87.7037 88.8949 87.3613 89.3542 87.11C89.8136 86.85 90.3076 86.72 90.8362 86.72ZM94.919 90.386C94.919 89.6667 95.0664 89.0297 95.361 88.475C95.6644 87.9203 96.0717 87.4913 96.583 87.188C97.103 86.876 97.675 86.72 98.299 86.72C98.8624 86.72 99.352 86.8327 99.768 87.058C100.193 87.2747 100.531 87.5477 100.782 87.877V86.837H102.277V94H100.782V92.934C100.531 93.272 100.188 93.5537 99.755 93.779C99.3217 94.0043 98.8277 94.117 98.273 94.117C97.6577 94.117 97.0944 93.961 96.583 93.649C96.0717 93.3283 95.6644 92.8863 95.361 92.323C95.0664 91.751 94.919 91.1053 94.919 90.386ZM100.782 90.412C100.782 89.918 100.678 89.489 100.47 89.125C100.271 88.761 100.006 88.4837 99.677 88.293C99.3477 88.1023 98.9924 88.007 98.611 88.007C98.2297 88.007 97.8744 88.1023 97.545 88.293C97.2157 88.475 96.947 88.748 96.739 89.112C96.5397 89.4673 96.44 89.892 96.44 90.386C96.44 90.88 96.5397 91.3133 96.739 91.686C96.947 92.0587 97.2157 92.3447 97.545 92.544C97.883 92.7347 98.2384 92.83 98.611 92.83C98.9924 92.83 99.3477 92.7347 99.677 92.544C100.006 92.3533 100.271 92.076 100.47 91.712C100.678 91.3393 100.782 90.906 100.782 90.412ZM106.85 86.72C107.404 86.72 107.894 86.8327 108.319 87.058C108.752 87.2747 109.09 87.5477 109.333 87.877V86.837H110.828V94.117C110.828 94.7757 110.689 95.3607 110.412 95.872C110.134 96.392 109.731 96.7993 109.203 97.094C108.683 97.3887 108.059 97.536 107.331 97.536C106.36 97.536 105.554 97.3063 104.913 96.847C104.271 96.3963 103.907 95.781 103.821 95.001H105.29C105.402 95.3737 105.641 95.6727 106.005 95.898C106.377 96.132 106.819 96.249 107.331 96.249C107.929 96.249 108.41 96.067 108.774 95.703C109.146 95.339 109.333 94.8103 109.333 94.117V92.921C109.081 93.259 108.739 93.545 108.306 93.779C107.881 94.0043 107.396 94.117 106.85 94.117C106.226 94.117 105.654 93.961 105.134 93.649C104.622 93.3283 104.215 92.8863 103.912 92.323C103.617 91.751 103.47 91.1053 103.47 90.386C103.47 89.6667 103.617 89.0297 103.912 88.475C104.215 87.9203 104.622 87.4913 105.134 87.188C105.654 86.876 106.226 86.72 106.85 86.72ZM109.333 90.412C109.333 89.918 109.229 89.489 109.021 89.125C108.821 88.761 108.557 88.4837 108.228 88.293C107.898 88.1023 107.543 88.007 107.162 88.007C106.78 88.007 106.425 88.1023 106.096 88.293C105.766 88.475 105.498 88.748 105.29 89.112C105.09 89.4673 104.991 89.892 104.991 90.386C104.991 90.88 105.09 91.3133 105.29 91.686C105.498 92.0587 105.766 92.3447 106.096 92.544C106.434 92.7347 106.789 92.83 107.162 92.83C107.543 92.83 107.898 92.7347 108.228 92.544C108.557 92.3533 108.821 92.076 109.021 91.712C109.229 91.3393 109.333 90.906 109.333 90.412ZM119.079 90.243C119.079 90.5117 119.062 90.7543 119.027 90.971H113.554C113.597 91.543 113.81 92.0023 114.191 92.349C114.572 92.6957 115.04 92.869 115.595 92.869C116.392 92.869 116.956 92.5353 117.285 91.868H118.884C118.667 92.5267 118.273 93.0683 117.701 93.493C117.138 93.909 116.436 94.117 115.595 94.117C114.91 94.117 114.295 93.9653 113.749 93.662C113.212 93.35 112.787 92.9167 112.475 92.362C112.172 91.7987 112.02 91.1487 112.02 90.412C112.02 89.6753 112.167 89.0297 112.462 88.475C112.765 87.9117 113.186 87.4783 113.723 87.175C114.269 86.8717 114.893 86.72 115.595 86.72C116.271 86.72 116.873 86.8673 117.402 87.162C117.931 87.4567 118.342 87.8727 118.637 88.41C118.932 88.9387 119.079 89.5497 119.079 90.243ZM117.532 89.775C117.523 89.229 117.328 88.7913 116.947 88.462C116.566 88.1327 116.093 87.968 115.53 87.968C115.019 87.968 114.581 88.1327 114.217 88.462C113.853 88.7827 113.636 89.2203 113.567 89.775H117.532ZM130.376 89.931H127.75V92.622H126.372V89.931H123.746V88.683H126.372V85.992H127.75V88.683H130.376V89.931Z" fill="#536471"/>
</svg>
